# xmcd CD database file
#
# Track frame offsets:
#	150
#	28983
#	57227
#	79520
#	104492
#	132998
#	167579
#	189465
#	216513
#	240795
#
# Disc length: 3397 seconds
#
# Revision: 0
# Processed by: cddbd v1.5.2PL0 Copyright (c) Steve Scherf et al.
# Submitted via: CDex 1.70beta2
#
DISCID=840d430a
DTITLE=Yuji Ohno Trio - LUPIN THE THIRD JAZZ For Lovers Only
DYEAR=2008
DGENRE=Jazz
TTITLE0=Moonlight Serenade
TTITLE1=The Shadow Of Your Smile
TTITLE2=Sunny
TTITLE3=Corcovado
TTITLE4=Hush-a-bye
TTITLE5=You Don't Know What Love Is
TTITLE6=Smile
TTITLE7=All The Things You Are
TTITLE8=Love Ballade
TTITLE9=This Guy's In Love With You
EXTD=YEAR: 2008
EXTT0=
EXTT1=
EXTT2=
EXTT3=
EXTT4=
EXTT5=
EXTT6=
EXTT7=
EXTT8=
EXTT9=
PLAYORDER=
